<svg width="301" height="325" viewBox="0 0 301 325" fill="none" xmlns="http://www.w3.org/2000/svg">
<path d="M285.95 43.875H282.815C279.052 43.875 275.917 45.5 273.408 47.6667C259.613 63.375 242.054 78.5417 219.479 94.25C216.971 96.4167 215.09 99.125 215.09 102.375V242.125C215.09 247.542 220.106 252.417 227.004 252.417H285.95C292.221 252.417 297.865 248.083 297.865 242.125V53.625C297.865 48.2083 292.848 43.875 285.95 43.875Z" fill="#010101"/>
<path d="M185.617 109.958C181.854 108.333 176.838 108.333 173.075 110.5C154.89 121.333 135.45 131.083 115.383 140.292C111.621 141.917 109.113 145.708 109.113 149.5V242.125C109.113 247.542 114.129 252.417 121.027 252.417H179.973C186.244 252.417 191.888 248.083 191.888 242.125V119.167C191.888 115.375 189.379 111.583 185.617 109.958Z" fill="#010101"/>
<path d="M80.2667 151.667C77.1313 150.042 72.7417 149.5 68.9792 151.125C49.5396 158.708 30.1 165.208 11.2875 170.083C6.27085 171.167 3.13544 175.5 3.13544 179.833V242.125C3.13544 247.542 8.1521 252.417 15.05 252.417H73.9959C80.2667 252.417 85.9104 248.083 85.9104 242.125V160.333C85.9104 157.083 83.4021 153.833 80.2667 151.667Z" fill="#010101"/>
<path d="M225.75 68.25L232.021 25.4584C232.648 20.0417 228.258 14.625 221.988 14.0834L172.448 8.6667C166.177 8.12503 159.906 11.9167 159.279 17.3334C158.652 22.75 163.042 28.1667 169.313 28.7084L190.006 30.875C161.16 54.1667 97.1979 100.75 12.5417 124.583C6.27086 126.208 3.13544 132.167 5.01669 137.583C6.89794 141.917 11.2875 144.625 16.3042 144.625C17.5584 144.625 18.8125 144.625 20.0667 144.083C108.485 119.167 174.329 71.5 205.056 46.0417L201.921 65C201.294 70.4167 205.683 75.8334 211.954 76.375C212.581 76.375 213.208 76.375 213.208 76.375C219.479 76.9167 225.123 73.125 225.75 68.25Z" fill="#010101"/>
</svg>
