<svg xmlns="http://www.w3.org/2000/svg" xmlns:xlink="http://www.w3.org/1999/xlink" version="1.1" x="0px" y="0px" viewBox="0 0 60 75" style="enable-background:new 0 0 60 60;" xml:space="preserve"><g><path d="M14.1924477,36.1041679l-8.1924438-1.8430786v15.187439h6.5230103c0.2567749,0,0.4741211-0.1912231,0.5060425-0.4453125   L14.5855141,36.66502C14.6185341,36.4034843,14.4502602,36.1627007,14.1924477,36.1041679z"/><path d="M37.5520668,33.8536186c5.1903076-2.6867676,8.5929565-5.4438477,10.3944702-8.4182739   c0.3920288-0.6472168,0.5986938-1.4195557,0.5986938-2.2340088V9.3434258L37.5520668,6.0228081L26.5577431,9.3434258v13.8579102   c0,0.8144531,0.2077637,1.586792,0.5997925,2.2334595C28.9590492,28.4108086,32.3616982,31.1674004,37.5520668,33.8536186z    M29.4501381,12.1031914l9.1928101-2.7762451v9.454834h7.0109863v3.5582275c0,0.59552-0.1513062,1.1601563-0.4389648,1.6326294   c-1.2687988,2.0971069-3.6071777,4.0402832-7.1473389,5.9387207l-1.6065063,0.8613281v-9.809082h-7.0109863V12.1031914z"/><path d="M53.6556435,44.7668877c-0.9300537-0.8671265-2.2297363-1.2272339-3.4719238-0.9672852l-9.510437,2.0020142   c-0.8770752,0.772522-2.0281982,1.24823-3.2885132,1.2973022c-0.2844238,0.0112305-0.6040649,0.0181274-0.9555664,0.0181274   c-2.5983887,0-6.9577637-0.3856812-11.9616089-2.40448l0.81604-2.0230713   c5.3043213,2.1397705,9.8128052,2.31604,12.0159302,2.2297363c0.9108276-0.0356445,1.7236938-0.4106445,2.2318726-1.0291138   c0.2290649-0.2796021,0.3185425-0.4990845,0.2652588-0.6524658c-0.1587524-0.4602661-1.425415-1.460083-5.1636963-2.2851563   c-1.9591064-0.4325562-3.9118652-1.0200806-5.8018188-1.7466431l-2.6004639-0.9998169   c-1.7525024-0.6727295-3.6488037-0.824585-5.4832764-0.4383545l-4.2136841,0.8867188l-1.1001587,8.7205811l0.2300415-0.3213501   c7.8813477,5.6478882,19.1962891,6.9017944,19.3103027,6.9135132c2.3639526,0.1997681,9.2907715-2.5892944,18.4569092-7.460022   c0.3100586-0.1645508,0.5134888-0.4586182,0.5593262-0.8074951C54.0370522,45.3486137,53.9145546,45.00877,53.6556435,44.7668877z"/></g><text x="0" y="75" fill="#000000" font-size="5px" font-weight="bold" font-family="'Helvetica Neue', Helvetica, Arial-Unicode, Arial, Sans-serif">Created by Vectorstall</text><text x="0" y="80" fill="#000000" font-size="5px" font-weight="bold" font-family="'Helvetica Neue', Helvetica, Arial-Unicode, Arial, Sans-serif">from the Noun Project</text></svg>