<svg width="68" height="85" viewBox="0 0 68 85" fill="none" xmlns="http://www.w3.org/2000/svg">
<path d="M65.496 72.3948H59.6718V40.5708C61.2265 39.77 62.3007 38.1685 62.3007 36.3052C62.3007 34.4419 61.2265 32.8404 59.6718 32.0396V28.2232C59.6718 27.3599 58.9726 26.6607 58.1093 26.6607C57.2461 26.6607 56.5468 27.3599 56.5468 28.2232V31.4888H47.3398L44.0742 26.2036C41.9258 22.7231 38.1992 20.645 34.1054 20.645H32.8749C29.6054 20.645 26.5702 22.02 24.4061 24.2778C23.9101 23.9497 23.3632 23.688 22.7656 23.5083L22.2343 23.352C19.0195 22.4106 15.6288 24.2466 14.6835 27.4575L13.6757 30.8833C13.1757 30.481 12.5976 30.1646 11.9452 29.9732C11.4804 29.8365 10.9999 29.7662 10.5194 29.7662C8.3006 29.7662 6.3124 31.2544 5.6835 33.3872L3.746 39.9771C3.36709 41.2662 3.51162 42.6254 4.15616 43.8051C4.80069 44.9848 5.86316 45.8443 7.15226 46.2232L10.5 47.2075C10.5039 47.2075 10.5117 47.2075 10.5156 47.2114L17.1836 49.1762C17.2578 49.4653 17.3594 49.7426 17.4648 50.0239V60.8439L11.3906 76.7539H5.88284C5.46878 76.7539 5.07033 76.918 4.77733 77.2109L0.457035 81.5312C-0.152345 82.1406 -0.152345 83.1289 0.457035 83.7421C0.761725 84.0468 1.16015 84.1992 1.56253 84.1992C1.96878 84.1952 2.36722 84.0429 2.67193 83.7382L6.53133 79.8788H12.4649H12.4688H12.4727H21.0235H21.0275H21.0314L45.8594 79.8749C46.1133 79.8749 46.3672 79.8124 46.5937 79.6952L54.4687 75.5194H65.4957C66.359 75.5194 67.0582 74.8202 67.0582 73.9569C67.0582 73.0936 66.3593 72.3948 65.496 72.3948ZM32.879 23.7698H34.1095C37.1095 23.7698 39.8439 25.2932 41.4181 27.844L45.1408 33.8713C45.426 34.3323 45.9299 34.6135 46.4689 34.6135H57.485C58.4185 34.6135 59.1763 35.3713 59.1763 36.3049C59.1763 37.2385 58.4185 37.9963 57.485 37.9963H43.4109L37.4617 32.6838C37.0555 32.3205 36.4852 32.1955 35.9656 32.3557C35.4422 32.5158 35.0399 32.9377 34.907 33.4651L31.3679 47.3911C31.1883 48.0942 31.5164 48.8247 32.1609 49.1606L38.5359 52.4848C40.7039 53.6137 42.0515 55.8364 42.0515 58.2856V76.7546H37.9851V59.3096C37.9851 58.6885 37.614 58.1221 37.0437 57.876L23.0827 51.8252C20.7858 50.8291 19.5593 48.2627 20.2272 45.8525L24.6022 30.0635C25.6334 26.3565 29.0353 23.7698 32.879 23.7698ZM27.8399 64.7038L28.2462 57.4694L34.8595 60.3366V76.7546H23.3005L27.738 65.1766C27.7966 65.0243 27.8321 64.864 27.8399 64.7038ZM6.90195 42.3058C6.65976 41.8566 6.60117 41.341 6.7457 40.8527L8.6832 34.2629C8.92148 33.4504 9.67929 32.884 10.523 32.884C10.7066 32.884 10.8902 32.9114 11.066 32.9621C12.0816 33.2629 12.6637 34.3293 12.3629 35.3449L9.88627 43.7629L8.03857 43.22C7.55029 43.0794 7.14803 42.755 6.90195 42.3058ZM17.6869 28.3368C18.144 26.7821 19.7924 25.8837 21.3549 26.3485L21.8784 26.5009C22.1362 26.579 22.3706 26.7001 22.5893 26.8368C22.1831 27.5907 21.8237 28.3798 21.5893 29.2313L17.2143 45.0203C17.1362 45.3055 17.105 45.5945 17.0581 45.8836L12.8862 44.6531L17.6869 28.3368ZM20.4917 61.6888C20.5581 61.5091 20.5932 61.3216 20.5932 61.1302V54.0091C20.9838 54.2669 21.3979 54.5013 21.8393 54.6927L25.1909 56.1458L24.7339 64.2864L19.9566 76.7554H14.7378L20.4917 61.6888ZM54.0816 72.3958C53.8277 72.3958 53.5738 72.4583 53.3473 72.5755L45.4723 76.7513H45.1793V58.2863C45.1793 54.6691 43.1871 51.3879 39.9801 49.716L34.7028 46.966L37.3044 36.732L41.7771 40.7242C42.0623 40.9781 42.4333 41.1227 42.8162 41.1227H56.5462V72.3956L54.0816 72.3958Z" fill="white"/>
<path d="M37.9531 19.3359C43.2851 19.3359 47.6211 15 47.6211 9.66794C47.6211 9.59763 47.6133 9.52732 47.6094 9.457H50.2969C51.1601 9.457 51.8594 8.75778 51.8594 7.8945C51.8594 7.03122 51.1601 6.332 50.2969 6.332H47.0157C45.6524 2.6445 42.1095 0 37.9532 0C32.6212 0 28.2852 4.3359 28.2852 9.668C28.2891 14.9961 32.6249 19.3359 37.9531 19.3359ZM44.4961 9.66794C44.4961 13.2773 41.5586 16.2109 37.9531 16.2109C34.3476 16.2109 31.4101 13.2773 31.4101 9.66794C31.4101 9.59372 31.4296 9.52732 31.4296 9.457H44.4726C44.4804 9.52731 44.4961 9.59372 44.4961 9.66794ZM37.9531 3.12494C40.3359 3.12494 42.4062 4.42184 43.5508 6.33194H32.3558C33.5003 4.42174 35.5702 3.12494 37.9531 3.12494Z" fill="white"/>
</svg>
