<svg width="101" height="102" viewBox="0 0 101 102" fill="none" xmlns="http://www.w3.org/2000/svg">
<path d="M29.7 69.9903L29.89 77.6303L36.94 80.1003C37.78 80.3903 37.24 79.9003 42.48 86.7503C50.49 84.3703 49.96 84.5003 50.27 84.5003C50.58 84.5003 50.04 84.3703 58.06 86.7503C63.37 79.8303 62.73 80.4303 63.68 80.0803L70.65 77.6303L70.84 69.9903C70.86 69.3803 70.77 69.6703 75.46 62.8803C70.81 56.1603 70.86 56.4003 70.84 55.7703L70.65 48.1303L63.41 45.5903C62.83 45.3903 63.07 45.5503 58.06 39.0103C50.16 41.3603 50.44 41.3803 49.85 41.2003L42.49 39.0103L37.83 45.0903C37.45 45.5803 37.7 45.4003 29.9 48.1303C29.7 56.2603 29.8 56.0603 29.44 56.5803L25.09 62.8703C29.74 69.5903 29.69 69.3503 29.71 69.9803L29.7 69.9903ZM50.27 46.8503C59.14 46.8503 66.36 54.0403 66.36 62.8903C66.36 71.7403 59.14 78.9303 50.27 78.9303C41.4 78.9303 34.18 71.7403 34.18 62.8903C34.18 54.0403 41.4 46.8503 50.27 46.8503Z" fill="black"/>
<path d="M50.2701 75.9301C57.4901 75.9301 63.3601 70.0801 63.3601 62.8901C63.3601 55.7001 57.4901 49.8501 50.2701 49.8501C43.0501 49.8501 37.1801 55.7001 37.1801 62.8901C37.1801 70.0801 43.0501 75.9301 50.2701 75.9301Z" fill="black"/>
<path d="M42.35 89.9201C41.76 90.1001 41.11 89.89 40.73 89.4C38.04 85.89 37.87 85.5701 37.87 85.6701V101.71H42.42C42.42 89.0001 42.46 89.9 42.36 89.93L42.35 89.9201Z" fill="black"/>
<path d="M55.13 99.5901V89.0101L50.27 87.5601L45.41 89.0101V99.5901C51.09 93.9401 49.45 93.9401 55.12 99.5901H55.13Z" fill="black"/>
<path d="M62.67 85.6602C60.16 88.9302 59.56 90.3302 58.19 89.9202C58.09 89.8902 58.13 88.9902 58.13 101.7H62.68V85.6602H62.67Z" fill="black"/>
<path d="M42.75 18.63L41.14 27.97L49.57 23.56C50.58 23.03 50.61 23.38 59.39 27.97L57.78 18.63C57.6 17.58 57.59 17.9 65.02 10.69C54.7 9.2 54.94 9.45 54.48 8.51L50.26 0L46.04 8.51C45.54 9.52 45.47 9.25 35.5 10.69C42.92 17.89 42.92 17.58 42.74 18.63H42.75Z" fill="black"/>
<path d="M83.5301 28.8099L82.34 35.7399L88.6001 32.4599C89.5301 31.9699 89.5101 32.2099 96.2501 35.7399L95.0601 28.8099C94.8801 27.7699 95.14 27.8299 100.55 22.5699C93.17 21.4999 92.9001 21.6899 92.4301 20.7399L89.3 14.4199L86.1701 20.7399C85.7001 21.6799 85.57 21.4799 78.05 22.5699C83.43 27.7899 83.72 27.7599 83.54 28.8099H83.5301Z" fill="black"/>
<path d="M5.49 28.8099L4.3 35.7399L10.56 32.4599C11.49 31.9699 11.48 32.2099 18.21 35.7399C16.93 28.3099 16.69 28.2099 17.45 27.4799L22.5 22.5699L15.51 21.5599C14.47 21.4099 14.62 21.2199 11.25 14.4199C7.94 21.0999 8.04 21.4099 6.99 21.5599L0 22.5699C5.38 27.7899 5.67 27.7599 5.49 28.8099Z" fill="black"/>
</svg>
