<svg width="48" height="48" viewBox="0 0 48 48" fill="none" xmlns="http://www.w3.org/2000/svg">
<path d="M8.19244 30.0814L0 28.2383V43.4257H6.52301C6.77979 43.4257 6.99713 43.2345 7.02905 42.9804L8.58551 30.6422C8.61853 30.3807 8.45026 30.1399 8.19244 30.0814Z" fill="black"/>
<path d="M31.5521 27.8308C36.7424 25.144 40.145 22.387 41.9465 19.4125C42.3386 18.7653 42.5452 17.993 42.5452 17.1785V3.32062L31.5521 0L20.5577 3.32062V17.1785C20.5577 17.993 20.7655 18.7653 21.1575 19.412C22.959 22.388 26.3617 25.1446 31.5521 27.8308ZM23.4501 6.08038L32.6429 3.30414V12.759H39.6539V16.3172C39.6539 16.9127 39.5026 17.4774 39.215 17.9498C37.9462 20.0469 35.6078 21.9901 32.0676 23.8885L30.4611 24.7499V14.9408H23.4501V6.08038Z" fill="black"/>
<path d="M47.6556 38.745C46.7256 37.8779 45.4259 37.5178 44.1837 37.7778L34.6733 39.7798C33.7962 40.5523 32.6451 41.028 31.3848 41.0771C31.1003 41.0883 30.7807 41.0952 30.4292 41.0952C27.8308 41.0952 23.4714 40.7095 18.4676 38.6907L19.2836 36.6676C24.588 38.8074 29.0964 38.9837 31.2996 38.8974C32.2104 38.8617 33.0233 38.4867 33.5314 37.8683C33.7605 37.5887 33.85 37.3692 33.7967 37.2158C33.6379 36.7555 32.3713 35.7557 28.633 34.9306C26.6739 34.4981 24.7211 33.9106 22.8312 33.184L20.2307 32.1842C18.4782 31.5115 16.5819 31.3596 14.7474 31.7458L10.5338 32.6326L9.43359 41.3531L9.66364 41.0318C17.545 46.6797 28.8599 47.9336 28.9739 47.9453C31.3379 48.1451 38.2647 45.356 47.4308 40.4853C47.7409 40.3207 47.9443 40.0267 47.9902 39.6778C48.037 39.3268 47.9146 38.9869 47.6556 38.745Z" fill="black"/>
</svg>
