<svg width="86" height="95" viewBox="0 0 86 95" fill="none" xmlns="http://www.w3.org/2000/svg">
<path d="M85.4 94.8H42.8H42.7H0C0.2 77 -0.500001 67.6 11 63.4C21.5 59.4 27.7 55.3 27.7 55.3L35.8 80.8L36.9 84.3L40.5 74.1C32.2 62.5 41.1 62 42.7 62C44.2 62 53.2 62.6 44.9 74.1L48.5 84.3L49.6 80.8L57.7 55.3C57.7 55.3 64 59.4 74.4 63.4C85.9 67.6 85.2 77.1 85.4 94.8ZM37.1 0C37.8 0 38.6 0.2 39.3 0.7L40.5 1.5C41.1 2 41.9 2.2 42.7 2.2C43.5 2.2 44.2 2 44.8 1.5L46 0.7C46.7 0.2 47.4 0 48.1 0C49.4 0 50.7 0.7 51.3 1.9L52 3.2C52.7 4.4 53.9 5.1 55.2 5.1C55.4 5.1 55.6 5.1 55.8 5L57.2 4.8C57.4 4.8 57.6 4.7 57.8 4.7C59.7 4.7 61.4 6.2 61.5 8.2L61.6 9.6C61.7 11.2 62.8 12.5 64.3 13L65.7 13.4C67.8 14 68.9 16.3 68.1 18.4L67.5 19.7C66.9 21.2 67.3 22.8 68.4 23.9L69.5 24.9C71.2 26.4 71.1 29 69.5 30.4L68.4 31.4C67.2 32.4 66.8 34.1 67.4 35.6L68 36.9C68.9 38.9 67.7 41.3 65.6 41.9L64.2 42.3C62.7 42.7 61.6 44.1 61.5 45.7L61.4 47.1C61.3 49.1 59.6 50.6 57.7 50.6C57.5 50.6 57.3 50.6 57 50.5L55.7 50.3C55.5 50.3 55.3 50.2 55.1 50.2C53.8 50.2 52.5 50.9 51.9 52.1L51.1 53.4C50.4 54.6 49.2 55.3 47.9 55.3C47.2 55.3 46.4 55.1 45.7 54.6L44.5 53.8C43.9 53.3 43.1 53.1 42.3 53.1C41.5 53.1 40.8 53.3 40.2 53.8L39 54.6C38.3 55.1 37.6 55.3 36.9 55.3C35.6 55.3 34.3 54.6 33.7 53.4L33 52.1C32.3 50.9 31.1 50.2 29.8 50.2C29.6 50.2 29.4 50.2 29.2 50.3L27.7 50.5C27.5 50.5 27.3 50.6 27.1 50.6C25.2 50.6 23.5 49.1 23.4 47.1L23.3 45.7C23.2 44.1 22.1 42.8 20.6 42.3L19.2 41.9C17.1 41.3 16 39 16.8 36.9L17.4 35.6C18 34.1 17.6 32.5 16.5 31.4L15.4 30.4C13.7 28.9 13.8 26.3 15.4 24.9L16.5 23.9C17.7 22.9 18.1 21.2 17.5 19.7L16.9 18.4C16 16.4 17.2 14 19.3 13.4L20.7 13C22.2 12.6 23.3 11.2 23.4 9.6L23.5 8.2C23.6 6.2 25.3 4.7 27.2 4.7C27.4 4.7 27.6 4.7 27.9 4.8L29.3 5.1C29.5 5.1 29.7 5.2 29.9 5.2C31.2 5.2 32.5 4.5 33.1 3.3L33.8 2C34.5 0.6 35.8 0 37.1 0ZM35.2 24L30.7 28.4L35 32.7L39.5 37.2L44 32.7L54.3 22.5L49.8 18L39.5 28.3L35.2 24Z" fill="black"/>
</svg>
