<svg width="30" height="28" viewBox="0 0 30 28" fill="none" xmlns="http://www.w3.org/2000/svg">
<path d="M0.48589 9.39805C0.428375 9.40434 0.370182 9.39918 0.314671 9.38287C0.25916 9.36656 0.207428 9.33941 0.162462 9.303C0.117495 9.26659 0.0801831 9.22164 0.0526793 9.17074C0.0251755 9.11983 0.0080241 9.06399 0.00221465 9.00642C-0.00359479 8.94885 0.00205283 8.89071 0.0188315 8.83533C0.0356102 8.77996 0.0631878 8.72846 0.0999732 8.6838C0.136759 8.63914 0.182024 8.60221 0.233156 8.57513C0.284289 8.54806 0.340277 8.53138 0.39789 8.52605C0.50089 8.51605 0.6022 8.50778 0.70352 8.49947C0.662842 8.26021 0.673601 8.01503 0.73508 7.78025C0.491653 7.32527 0.409125 6.80138 0.50089 6.2936C0.523577 6.17972 0.590572 6.07952 0.687137 6.01504C0.783702 5.95056 0.901928 5.92708 1.01581 5.94977C1.12968 5.97245 1.22988 6.03945 1.29436 6.13601C1.35885 6.23258 1.38233 6.3508 1.35964 6.46468C1.30023 6.82814 1.38161 7.20058 1.5872 7.50614C1.7882 7.84166 1.42774 7.98451 1.60049 8.48614C2.54869 8.48528 3.46596 8.82344 4.1867 9.43957C4.67774 9.3889 5.17192 9.37559 5.66498 9.39973C5.70263 9.22867 5.70405 9.05162 5.66915 8.87998C5.63425 8.70833 5.5638 8.5459 5.46234 8.40312C5.40447 8.35902 5.35845 8.30125 5.3284 8.23499C5.29834 8.16873 5.2852 8.09605 5.29013 8.02346C5.29507 7.95087 5.31794 7.88063 5.35669 7.81906C5.39544 7.75748 5.44886 7.70647 5.51217 7.67061C5.6384 7.56544 5.74008 7.43392 5.8101 7.28529C5.88011 7.13665 5.91675 6.9745 5.91746 6.8102C5.90411 6.64251 5.83424 6.48432 5.71927 6.36151C5.60431 6.2387 5.45106 6.15856 5.28461 6.1342C5.20713 6.13021 5.13212 6.10564 5.06731 6.063C5.00249 6.02036 4.95022 5.96121 4.91589 5.89164C4.89928 5.86174 4.88931 5.84181 4.88267 5.82852L4.88101 5.83018C4.57849 5.42631 4.13042 5.1563 3.632 5.07752C3.13358 4.99874 2.62408 5.1174 2.21175 5.40828C2.11109 5.46643 1.99145 5.48221 1.87915 5.45215C1.76686 5.42209 1.6711 5.34865 1.61295 5.24799C1.5548 5.14733 1.53902 5.02769 1.56908 4.91539C1.59914 4.8031 1.67258 4.70734 1.77324 4.64919C2.41561 4.27523 3.16455 4.12673 3.90101 4.22729C4.2425 4.27211 4.57006 4.39109 4.86072 4.57587C5.15138 4.76066 5.3981 5.00678 5.58359 5.29699C5.63254 5.30863 5.68079 5.32305 5.7281 5.34018C7.1051 4.34025 9.2711 4.65086 9.90059 6.16903C10.1094 6.7093 10.1235 7.30544 9.94045 7.85497C10.1556 8.00587 10.337 8.1999 10.4731 8.42474C10.6092 8.64957 10.697 8.90027 10.7309 9.16088C10.7648 9.42149 10.7441 9.68631 10.67 9.93847C10.596 10.1906 10.4703 10.4246 10.3009 10.6256C11.9287 10.2535 13.6246 10.3039 15.2275 10.7717C15.7103 10.9445 16.1598 11.199 16.5563 11.5242C16.7939 11.3542 17.0476 11.2079 17.3137 11.0873C17.1901 10.575 17.2556 10.0354 17.4981 9.56748C17.1979 9.19977 17.0305 8.74153 17.0231 8.2669C17.0372 7.92805 17.1562 7.60193 17.3635 7.33357C17.5709 7.06521 17.8565 6.86782 18.1808 6.76865C18.2917 6.52067 18.4656 6.30609 18.6853 6.14632C18.905 5.98655 19.1628 5.88718 19.4329 5.8581C19.7029 5.82902 19.9759 5.87127 20.2246 5.98061C20.4733 6.08996 20.6889 6.26259 20.85 6.48129C20.9898 6.41764 21.1364 6.37027 21.2869 6.3401C22.0061 4.12097 25.1255 3.2589 26.1304 5.80027C26.4136 5.74972 26.7048 5.77045 26.978 5.86058C27.2511 5.95071 27.4975 6.10741 27.6949 6.31655C27.8923 6.52569 28.0346 6.78068 28.1089 7.05853C28.1832 7.33638 28.1871 7.62835 28.1203 7.90811C28.8935 8.13618 29.548 8.65545 29.9458 9.35652C29.9742 9.40658 29.9924 9.46174 29.9994 9.51884C30.0065 9.57594 30.0022 9.63387 29.9868 9.68932C29.9715 9.74477 29.9454 9.79665 29.91 9.84201C29.8746 9.88736 29.8306 9.9253 29.7805 9.95366C29.7305 9.98202 29.6753 10.0002 29.6182 10.0073C29.5611 10.0143 29.5032 10.01 29.4477 9.9947C29.3923 9.97935 29.3404 9.95323 29.2951 9.91783C29.2497 9.88244 29.2118 9.83845 29.1834 9.78839C28.9843 9.44538 28.6995 9.15998 28.3569 8.96019C28.0143 8.7604 27.6256 8.65307 27.229 8.64871C26.8324 8.64436 26.4415 8.74313 26.0946 8.93535C25.7477 9.12757 25.4567 9.40664 25.2501 9.7452C25.5905 10.0772 25.8276 10.5006 25.9328 10.9644C26.1844 11.9952 26.3258 13.0497 26.3547 14.1104C26.3585 14.1679 26.351 14.2255 26.3325 14.2801C26.314 14.3347 26.285 14.385 26.247 14.4284C26.2091 14.4717 26.163 14.5072 26.1113 14.5327C26.0597 14.5582 26.0035 14.5733 25.9461 14.5771C25.8886 14.581 25.8309 14.5734 25.7764 14.5549C25.7218 14.5365 25.6714 14.5074 25.6281 14.4695C25.5847 14.4316 25.5493 14.3854 25.5238 14.3338C25.4982 14.2822 25.4831 14.226 25.4793 14.1685C25.455 13.1564 25.3202 12.1499 25.0773 11.1671C24.6737 9.46617 22.1738 9.50438 21.2138 10.7634C21.6071 10.9137 21.9474 11.1766 22.1921 11.5192C22.2037 11.5375 22.2187 11.5574 22.2336 11.5773C22.516 11.961 23.0542 12.6935 23.3947 17.9025C23.3985 17.9601 23.3909 18.0179 23.3724 18.0725C23.3538 18.1272 23.3246 18.1777 23.2865 18.221C23.2484 18.2644 23.2021 18.2998 23.1503 18.3252C23.0985 18.3506 23.0421 18.3656 22.9845 18.3692C22.9269 18.3728 22.8692 18.365 22.8146 18.3462C22.76 18.3275 22.7096 18.2981 22.6664 18.2598C22.6232 18.2216 22.588 18.1752 22.5627 18.1232C22.5375 18.0713 22.5227 18.0149 22.5193 17.9573C22.1954 13.0058 21.7569 12.4095 21.5261 12.0956L21.3832 11.9062C20.6789 11.1288 18.8966 11.3913 18.0711 11.7202C17.7675 11.828 17.4771 11.9701 17.2057 12.1438C18.8319 13.9443 19.6856 16.9159 20.1258 19.2363C20.6002 19.0525 21.1245 19.0436 21.6049 19.2113C22.0852 19.3791 22.4901 19.7124 22.7469 20.1516C22.9088 19.8395 23.1308 19.5626 23.4002 19.3368C23.6696 19.1111 23.9811 18.9408 24.3166 18.836C24.8262 18.6946 25.3606 18.6657 25.8825 18.7512C26.4045 18.8366 26.9017 19.0345 27.3396 19.331C27.5504 19.1721 27.7951 19.064 28.0545 19.0152C28.3139 18.9663 28.5812 18.978 28.8353 19.0494C29.0895 19.1208 29.3237 19.2499 29.5198 19.4267C29.7159 19.6034 29.8685 19.8231 29.9657 20.0685C29.9887 20.1212 30.0011 20.1779 30.0022 20.2354C30.0033 20.2928 29.9931 20.35 29.9721 20.4035C29.9512 20.457 29.9198 20.5059 29.88 20.5473C29.8401 20.5887 29.7925 20.6219 29.7398 20.6449C29.6871 20.6679 29.6304 20.6803 29.573 20.6814C29.5155 20.6825 29.4584 20.6723 29.4048 20.6513C29.3513 20.6303 29.3025 20.599 29.261 20.5592C29.2196 20.5193 29.1865 20.4717 29.1634 20.419C29.1247 20.3114 29.0644 20.2129 28.9862 20.1295C28.908 20.0461 28.8136 19.9796 28.7087 19.934C28.6039 19.8884 28.4908 19.8647 28.3765 19.8644C28.2622 19.8642 28.149 19.8873 28.0439 19.9323C27.9131 19.9914 27.793 20.0716 27.6884 20.1698C27.6168 20.2464 27.5201 20.2948 27.4158 20.306C27.3116 20.3173 27.2067 20.2908 27.1204 20.2313C26.7685 19.9503 26.357 19.7536 25.9173 19.6563C25.4777 19.5589 25.0216 19.5636 24.584 19.6699C24.2592 19.7724 23.9693 19.9634 23.7468 20.2213C23.9977 20.2849 24.2278 20.4124 24.4147 20.5915C24.6016 20.7705 24.7389 20.995 24.8132 21.2429C25.0564 21.222 25.3014 21.2504 25.5333 21.3265C25.7653 21.4025 25.9795 21.5247 26.1632 21.6855C26.3468 21.8463 26.4961 22.0426 26.6021 22.2625C26.708 22.4824 26.7685 22.7214 26.7799 22.9653C26.8157 23.368 26.7262 23.7719 26.5238 24.1218C26.3213 24.4718 26.0157 24.7506 25.6487 24.9203C25.5462 24.9735 25.4269 24.984 25.3166 24.9497C25.2064 24.9154 25.1141 24.839 25.0598 24.7371C25.0056 24.6352 24.9937 24.5159 25.0269 24.4053C25.06 24.2947 25.1354 24.2016 25.2368 24.1463C26.6171 23.4105 25.5972 21.6348 24.6521 22.2245C24.5806 22.2717 24.4969 22.297 24.4112 22.2973C24.3255 22.2976 24.2416 22.2728 24.1698 22.226C24.098 22.1793 24.0414 22.1126 24.007 22.0341C23.9726 21.9556 23.9619 21.8688 23.9761 21.7843C24.1007 21.0601 23.237 20.8923 22.9048 21.1631C22.8528 21.2106 22.7901 21.2448 22.7221 21.2629C22.654 21.2809 22.5826 21.2823 22.5139 21.2668C22.4452 21.2513 22.3813 21.2194 22.3276 21.1739C22.2739 21.1283 22.232 21.0705 22.2055 21.0053C22.131 20.7672 21.9992 20.5511 21.8217 20.3758C21.6442 20.2006 21.4263 20.0717 21.1873 20.0004C20.8798 19.9407 20.5613 19.9832 20.2803 20.1216C20.3833 20.7744 20.4581 21.3807 20.5079 21.9056C20.5137 21.9631 20.5081 22.0212 20.4914 22.0765C20.4747 22.1319 20.4472 22.1834 20.4105 22.228C20.3738 22.2727 20.3286 22.3096 20.2775 22.3367C20.2264 22.3638 20.1705 22.3805 20.1129 22.3859C20.0554 22.3913 19.9973 22.3852 19.9421 22.368C19.8869 22.3508 19.8357 22.3229 19.7913 22.2858C19.747 22.2487 19.7104 22.2032 19.6837 22.1519C19.6571 22.1006 19.6408 22.0446 19.6359 21.987C19.5828 21.4272 19.4997 20.7711 19.3834 20.0618C19.3608 20.0042 19.35 19.9426 19.3519 19.8808C19.0785 18.1398 18.5845 16.4408 17.8819 14.8246C17.3651 13.403 16.307 12.2434 14.9385 11.5989C13.5972 11.2159 12.1852 11.1505 10.8142 11.4079C11.1032 12.0566 11.294 12.7445 11.3806 13.4493C11.6869 15.566 11.5098 17.7245 10.8624 19.7629C10.6357 20.5241 10.3685 21.2726 10.0618 22.0052C10.0173 22.1127 9.9319 22.1982 9.82444 22.2427C9.71697 22.2872 9.5962 22.2873 9.48872 22.2428C9.38123 22.1983 9.29581 22.1129 9.25127 22.0054C9.20672 21.898 9.2067 21.7772 9.25119 21.6697C9.51197 21.0435 9.72624 20.4538 9.90397 19.8957C9.61187 19.825 9.30386 19.8667 9.04109 20.0126C8.77832 20.1584 8.57999 20.3978 8.48546 20.683C8.45678 20.7453 8.41384 20.7999 8.3601 20.8424C8.30637 20.8849 8.24336 20.9141 8.17621 20.9277C8.10905 20.9413 8.03963 20.9389 7.9736 20.9206C7.90756 20.9023 7.84676 20.8687 7.79614 20.8226C7.67698 20.7336 7.53569 20.6791 7.38768 20.665C7.23966 20.6509 7.09061 20.6776 6.95678 20.7424C6.82294 20.8072 6.70946 20.9075 6.62872 21.0323C6.54797 21.1572 6.50306 21.3018 6.49888 21.4504C6.49878 21.5265 6.47884 21.6013 6.44102 21.6673C6.4032 21.7333 6.34881 21.7883 6.28323 21.8269C6.21765 21.8655 6.14314 21.8863 6.06706 21.8872C5.99098 21.8882 5.91597 21.8693 5.84942 21.8324C5.73395 21.7715 5.60519 21.7402 5.47465 21.7412C5.3441 21.7422 5.21583 21.7755 5.10132 21.8382C4.9868 21.9009 4.8896 21.991 4.81841 22.1004C4.74722 22.2098 4.70425 22.3352 4.69335 22.4653C4.67674 22.741 4.8445 23.0516 5.30128 23.2975C5.4037 23.3521 5.48023 23.4452 5.51403 23.5562C5.54783 23.6673 5.53613 23.7872 5.4815 23.8896C5.42688 23.992 5.3338 24.0686 5.22275 24.1024C5.1117 24.1362 4.99177 24.1245 4.88935 24.0698C4.56524 23.9331 4.28974 23.7021 4.09866 23.4068C3.90758 23.1115 3.80975 22.7655 3.81789 22.4138C3.83532 22.1856 3.89906 21.9632 4.00524 21.7604C4.11141 21.5576 4.25779 21.3785 4.43545 21.2341C4.6131 21.0897 4.81831 20.983 5.03855 20.9206C5.2588 20.8581 5.48946 20.8411 5.71647 20.8707C5.78878 20.6607 5.90541 20.4686 6.05845 20.3075C6.21149 20.1465 6.39736 20.0202 6.60347 19.9372C6.513 19.779 6.39166 19.6405 6.24666 19.53C6.10165 19.4195 5.93593 19.3392 5.75932 19.294C5.58272 19.2488 5.39883 19.2395 5.21856 19.2666C5.03829 19.2938 4.86532 19.3569 4.7099 19.4522C4.6287 19.49 4.53788 19.502 4.44968 19.4865C4.36147 19.4711 4.28012 19.429 4.21658 19.3659C3.34786 18.5005 1.40945 19.4124 0.81813 20.3957C0.757837 20.4951 0.660568 20.5666 0.547652 20.5944C0.434736 20.6223 0.315389 20.6042 0.215783 20.5442C0.116176 20.4842 0.0444393 20.3871 0.016303 20.2742C-0.0118334 20.1614 0.00592725 20.042 0.0656902 19.9422C0.87129 18.6068 3.22662 17.5288 4.61025 18.552C4.94193 18.4181 5.30058 18.3648 5.65685 18.3963C6.01311 18.4277 6.35686 18.5431 6.65995 18.733C7.04846 18.9937 7.34397 19.3712 7.50375 19.811C7.64557 19.8261 7.78501 19.8585 7.91901 19.9073C8.15222 19.5463 8.49414 19.2687 8.89541 19.1146C9.29667 18.9606 9.73651 18.938 10.1514 19.0502C10.659 17.2717 10.7819 15.4053 10.5119 13.5755C10.3607 12.5507 10.0568 11.3946 9.38738 11.0109C9.13389 10.8775 8.84087 10.8398 8.56185 10.9046C8.74732 11.2269 8.8818 11.576 8.9605 11.9394C9.07841 12.8119 9.14828 13.6903 9.16979 14.5705C9.17479 14.7067 9.17979 14.7997 9.18308 14.8462C9.1881 14.9037 9.18175 14.9616 9.16438 15.0166C9.14702 15.0716 9.119 15.1227 9.0819 15.1669C9.04481 15.2111 8.99937 15.2475 8.94819 15.2742C8.89701 15.3008 8.84108 15.3171 8.78361 15.3221C8.72613 15.3271 8.66823 15.3208 8.6132 15.3034C8.55818 15.286 8.50712 15.258 8.46293 15.2209C8.41874 15.1838 8.38229 15.1384 8.35566 15.0872C8.32903 15.036 8.31274 14.9801 8.30772 14.9226C8.30772 14.9126 8.30108 14.7897 8.29277 14.607C8.27299 13.7805 8.2109 12.9556 8.10677 12.1354C8.04864 11.7788 7.9001 11.443 7.67532 11.1601C7.45054 10.8771 7.15703 10.6565 6.82277 10.5192C6.19937 10.3043 5.5385 10.2195 4.88103 10.2701C5.21524 10.8227 5.47073 11.4192 5.64012 12.0424C5.97651 13.517 6.05964 15.038 5.88595 16.5404C5.88508 16.5979 5.87289 16.6546 5.85009 16.7074C5.82729 16.7602 5.79432 16.8079 5.75306 16.8479C5.7118 16.888 5.66306 16.9195 5.60962 16.9407C5.55619 16.9619 5.4991 16.9723 5.44163 16.9714C5.38415 16.9706 5.32741 16.9584 5.27464 16.9356C5.22187 16.9128 5.17411 16.8798 5.13408 16.8386C5.09406 16.7973 5.06255 16.7486 5.04136 16.6951C5.02017 16.6417 5.00972 16.5846 5.01059 16.5271C5.01723 16.0737 5.03384 15.69 5.04713 15.3395C5.15145 14.3151 5.067 13.2804 4.79798 12.2865C4.60466 11.3587 4.10433 10.5231 3.37775 9.91463C2.50694 9.4012 1.4806 9.21786 0.48589 9.39805ZM13.9717 3.91505C13.9141 3.91035 13.8579 3.89427 13.8065 3.86773C13.7551 3.84119 13.7094 3.80472 13.6722 3.76044C13.6349 3.71615 13.6069 3.66492 13.5895 3.60971C13.5722 3.5545 13.566 3.49641 13.5713 3.43879C13.5766 3.38117 13.5932 3.32516 13.6202 3.27401C13.6473 3.22286 13.6842 3.17757 13.7288 3.14078C13.7735 3.10398 13.825 3.07639 13.8804 3.05962C13.9358 3.04284 13.9939 3.03721 14.0515 3.04305C14.4037 3.11455 14.7275 3.28713 14.9833 3.5397C15.2698 3.33589 15.6134 3.22775 15.965 3.2307C16.0809 3.22945 16.1925 3.27422 16.2754 3.35518C16.3584 3.43614 16.4058 3.54669 16.4074 3.66258C16.4089 3.77847 16.3644 3.89024 16.2837 3.97338C16.2029 4.05651 16.0925 4.10423 15.9766 4.10606C15.8441 4.10255 15.7128 4.13252 15.5949 4.1932C15.477 4.25388 15.3764 4.34331 15.3022 4.45322C15.2547 4.52595 15.1866 4.58293 15.1066 4.61695C15.0267 4.65096 14.9384 4.66048 14.853 4.64429C14.7676 4.6281 14.689 4.58694 14.627 4.52602C14.5651 4.4651 14.5226 4.38716 14.5049 4.30207C14.3592 4.13395 14.1768 4.00153 13.9717 3.91505ZM18.0529 2.47491C17.9953 2.47025 17.9392 2.45422 17.8878 2.42776C17.8364 2.4013 17.7907 2.36492 17.7535 2.32072C17.7162 2.27652 17.6881 2.22539 17.6707 2.17026C17.6533 2.11514 17.647 2.05711 17.6522 1.99954C17.6573 1.94197 17.6738 1.88598 17.7007 1.83482C17.7276 1.78366 17.7644 1.73834 17.8089 1.70146C17.8534 1.66459 17.9048 1.63689 17.9601 1.61998C18.0154 1.60306 18.0734 1.59726 18.131 1.60291C18.6673 1.72191 19.1529 2.00596 19.5196 2.41515C19.9317 2.06464 20.4569 1.87523 20.9979 1.88193C21.1138 1.8809 21.2253 1.92588 21.3081 2.00699C21.3909 2.08811 21.4381 2.19874 21.4394 2.31462C21.4408 2.43051 21.3961 2.54219 21.3152 2.62517C21.2343 2.70816 21.1238 2.75567 21.0079 2.75729C20.7763 2.75223 20.5472 2.80557 20.3417 2.9124C20.1361 3.01923 19.9608 3.17611 19.8319 3.36855C19.7844 3.44142 19.7164 3.49854 19.6364 3.53265C19.5564 3.56677 19.468 3.57633 19.3826 3.56013C19.2972 3.54393 19.2184 3.5027 19.1565 3.44168C19.0945 3.38065 19.0521 3.30259 19.0346 3.2174C18.7962 2.87032 18.4518 2.60982 18.0529 2.47491ZM4.0405 1.18263C3.98326 1.19048 3.92503 1.18691 3.86918 1.17211C3.81333 1.15731 3.76096 1.13159 3.71512 1.09642C3.66928 1.06126 3.63086 1.01735 3.6021 0.96724C3.57333 0.917131 3.55479 0.861816 3.54755 0.804494C3.5403 0.747173 3.54449 0.688984 3.55988 0.633293C3.57527 0.577602 3.60155 0.525516 3.6372 0.480048C3.67285 0.43458 3.71716 0.396633 3.76757 0.368402C3.81799 0.340172 3.87349 0.322218 3.93089 0.31558C4.40113 0.312563 4.86114 0.45278 5.24974 0.71758C5.53886 0.357053 5.94379 0.107639 6.39585 0.0116501C6.50929 -0.0150041 6.62867 0.00449582 6.72773 0.0658605C6.82679 0.127225 6.89741 0.225428 6.92407 0.338865C6.95072 0.452302 6.93122 0.571681 6.86985 0.670741C6.80849 0.7698 6.71029 0.840426 6.59685 0.86708C6.40694 0.903141 6.22959 0.987711 6.08203 1.11257C5.93446 1.23743 5.82171 1.39834 5.75471 1.57966C5.72188 1.65878 5.6666 1.72657 5.59571 1.77465C5.52481 1.82273 5.44139 1.84902 5.35573 1.85025C5.27008 1.85149 5.18593 1.82763 5.11368 1.78161C5.04142 1.73559 4.98421 1.66943 4.94911 1.59129C4.6927 1.36921 4.37679 1.2271 4.0405 1.18263ZM22.1955 6.41153C22.5541 6.55224 22.8656 6.79138 23.0943 7.10141C23.3229 7.41144 23.4593 7.77975 23.4878 8.16391C23.4903 8.43981 23.4551 8.71476 23.3831 8.98113C23.7768 8.99847 24.1636 9.09093 24.5226 9.25354C24.8045 8.786 25.206 8.40209 25.6857 8.14136C26.1654 7.88064 26.706 7.75254 27.2516 7.77025C27.3041 7.60719 27.3067 7.43223 27.2593 7.26766C27.2118 7.10309 27.1164 6.95638 26.9853 6.84625C26.8541 6.73612 26.6931 6.66755 26.5228 6.64929C26.3525 6.63103 26.1807 6.66391 26.0291 6.74373C25.9709 6.76979 25.9078 6.78294 25.844 6.78225C25.7803 6.78156 25.7174 6.76707 25.6598 6.73976C25.6022 6.71245 25.5512 6.67297 25.5103 6.62405C25.4694 6.57513 25.4396 6.51793 25.4229 6.45638C24.8681 4.32861 22.7835 5.07607 22.1955 6.41153ZM18.1393 10.775C18.8412 10.5583 19.5785 10.4799 20.3103 10.5442C20.5391 10.1702 20.8414 9.84658 21.1988 9.59277C21.5562 9.33897 21.9614 9.16028 22.3899 9.06751C22.4473 8.98456 22.4916 8.89323 22.5211 8.79676C22.5839 8.59184 22.6136 8.3782 22.6091 8.16391C22.5786 7.9155 22.4658 7.68444 22.2889 7.50747C22.1119 7.3305 21.8808 7.21778 21.6324 7.18723C21.3973 7.18643 21.1698 7.27013 20.9913 7.42309C20.9374 7.47894 20.8696 7.51944 20.7949 7.54042C20.7202 7.56141 20.6412 7.56214 20.5661 7.54252C20.4911 7.5229 20.4226 7.48365 20.3677 7.4288C20.3128 7.37395 20.2735 7.30548 20.2538 7.23041C20.2152 7.08538 20.1296 6.95724 20.0104 6.86608C19.8912 6.77491 19.7452 6.72586 19.5951 6.72662C19.445 6.72738 19.2995 6.7779 19.1812 6.87028C19.0629 6.96265 18.9786 7.09165 18.9416 7.23706C18.9231 7.33277 18.8732 7.41957 18.7998 7.48367C18.7263 7.54777 18.6336 7.58549 18.5363 7.59086C18.3695 7.61488 18.2159 7.69487 18.1006 7.81771C17.9853 7.94054 17.9152 8.09893 17.9018 8.26686C17.9025 8.43116 17.9391 8.59331 18.0091 8.74195C18.0791 8.89058 18.1808 9.0221 18.307 9.12727C18.3704 9.163 18.424 9.21389 18.4629 9.27539C18.5018 9.3369 18.5248 9.40708 18.5299 9.47967C18.535 9.55226 18.522 9.62498 18.4921 9.69131C18.4622 9.75765 18.4163 9.81553 18.3585 9.85978V9.85812C18.167 10.1227 18.0882 10.4524 18.1393 10.775ZM6.47556 5.90326C6.66808 6.16704 6.77916 6.4814 6.7951 6.80757C6.81104 7.13374 6.73114 7.45744 6.56526 7.73873C6.49814 7.87117 6.41683 7.99593 6.32275 8.1108C6.54584 8.54322 6.61943 9.03735 6.53204 9.51602C7.04273 9.6179 7.52201 9.83932 7.93062 10.1622C8.45214 9.95747 9.02917 9.94335 9.56008 10.1223C9.67782 10.0046 9.76506 9.85987 9.81423 9.70078C9.8634 9.5417 9.87302 9.37303 9.84226 9.20939C9.81149 9.04574 9.74127 8.89208 9.63768 8.76172C9.5341 8.63135 9.40027 8.52823 9.24781 8.46129C9.19368 8.44024 9.14428 8.40865 9.10246 8.36835C9.06064 8.32805 9.02725 8.27984 9.00423 8.22652C8.9812 8.1732 8.969 8.11584 8.96833 8.05777C8.96766 7.9997 8.97853 7.94207 9.00032 7.88824H8.99865C9.82252 5.86013 7.74126 5.21892 6.47556 5.90326ZM14.7358 21.4504C14.7365 21.3929 14.7484 21.336 14.7711 21.283C14.7937 21.2301 14.8266 21.1822 14.8678 21.1419C14.909 21.1017 14.9577 21.07 15.0111 21.0487C15.0646 21.0273 15.1218 21.0167 15.1793 21.0175C15.2369 21.0182 15.2938 21.0303 15.3466 21.0531C15.3995 21.0759 15.4474 21.1089 15.4875 21.1502C15.5276 21.1915 15.5592 21.2403 15.5804 21.2938C15.6016 21.3473 15.6121 21.4045 15.6112 21.4621C15.6049 21.9106 15.561 22.3579 15.48 22.7992C15.4698 22.8558 15.4486 22.9098 15.4176 22.9583C15.3866 23.0067 15.3463 23.0485 15.2991 23.0814C15.2519 23.1142 15.1987 23.1374 15.1425 23.1497C15.0864 23.162 15.0283 23.1631 14.9717 23.153C14.9151 23.1429 14.861 23.1217 14.8126 23.0906C14.7642 23.0596 14.7224 23.0193 14.6895 22.9721C14.6567 22.9249 14.6334 22.8717 14.6211 22.8156C14.6089 22.7594 14.6077 22.7013 14.6179 22.6447C14.6904 22.2506 14.7298 21.8511 14.7358 21.4504ZM15.6394 15.1435C15.5754 15.047 15.5522 14.9291 15.5748 14.8156C15.5975 14.702 15.6641 14.602 15.7603 14.5375C15.8564 14.4729 15.9742 14.4491 16.0879 14.4711C16.2016 14.4932 16.3019 14.5594 16.367 14.6552C16.971 15.5737 17.3662 16.6136 17.5247 17.7015C17.5418 17.8159 17.513 17.9325 17.4444 18.0257C17.3759 18.1189 17.2732 18.1812 17.1589 18.199C17.0446 18.2168 16.9278 18.1886 16.8342 18.1206C16.7406 18.0526 16.6777 17.9503 16.6593 17.8361C16.5187 16.8752 16.1707 15.9564 15.6394 15.1435ZM12.7908 16.8162C12.7855 16.7003 12.8263 16.587 12.9043 16.5011C12.9823 16.4152 13.0911 16.3636 13.207 16.3577C13.3229 16.3518 13.4364 16.392 13.5227 16.4695C13.609 16.547 13.6612 16.6555 13.6678 16.7713C13.7177 17.8685 13.5267 18.9633 13.108 19.9788C13.0646 20.086 12.9805 20.1716 12.8741 20.217C12.7677 20.2624 12.6476 20.2639 12.5402 20.2212C12.4327 20.1784 12.3465 20.0948 12.3004 19.9887C12.2543 19.8826 12.252 19.7626 12.2941 19.6549C12.6631 18.7557 12.8326 17.7872 12.7908 16.8162ZM11.4171 26.6461C11.305 26.6774 11.185 26.6628 11.0837 26.6057C10.9823 26.5485 10.9077 26.4534 10.8765 26.3413C10.8452 26.2292 10.8597 26.1092 10.9169 26.0079C10.974 25.9065 11.0691 25.8319 11.1813 25.8006C12.6164 25.3986 13.5665 25.9668 14.8953 26.5099L14.8969 26.5082C15.2886 26.685 15.7204 26.7538 16.1477 26.7076C16.2627 26.6925 16.379 26.7237 16.4711 26.7942C16.5632 26.8648 16.6235 26.969 16.6389 27.084C16.6543 27.1989 16.6235 27.3153 16.5532 27.4076C16.4829 27.4999 16.3789 27.5606 16.2639 27.5763C15.6856 27.6424 15.1 27.5547 14.5664 27.3221L14.568 27.3205C13.4286 26.8787 12.5583 26.3255 11.4171 26.6461ZM17.9765 26.9102C17.8665 26.9469 17.7464 26.9384 17.6426 26.8866C17.5388 26.8348 17.4598 26.744 17.4228 26.6341C17.3859 26.5242 17.394 26.4041 17.4455 26.3001C17.497 26.1962 17.5876 26.1169 17.6974 26.0797C18.1967 25.914 18.7312 25.8847 19.2455 25.995C19.3595 26.0165 19.4603 26.0823 19.5258 26.178C19.5913 26.2737 19.6163 26.3914 19.5952 26.5055C19.5741 26.6195 19.5087 26.7205 19.4133 26.7864C19.3178 26.8523 19.2002 26.8777 19.0861 26.8571C18.7181 26.7749 18.3349 26.7933 17.9765 26.9102ZM8.08842 22.9088C8.05475 22.8622 8.03059 22.8095 8.01733 22.7536C8.00406 22.6977 8.00194 22.6397 8.01109 22.583C8.02024 22.5262 8.04049 22.4719 8.07067 22.423C8.10085 22.3741 8.14037 22.3316 8.18697 22.298C8.23357 22.2644 8.28635 22.2403 8.34227 22.2271C8.39819 22.2139 8.45617 22.2118 8.51289 22.221C8.56961 22.2302 8.62395 22.2505 8.67282 22.2808C8.72169 22.311 8.76412 22.3506 8.79768 22.3972C9.56175 23.4569 10.555 24.2526 11.9154 23.8705C12.2694 23.7303 12.6518 23.6773 13.0306 23.716C13.4093 23.7548 13.7732 23.8841 14.0914 24.0931C14.9667 24.5183 15.8504 24.9651 16.8287 24.4286C17.5392 23.9553 18.4077 23.7816 19.2455 23.9453C20.5893 24.1911 21.1225 23.3839 21.7155 22.4836H21.7138C21.7451 22.4347 21.7857 22.3926 21.8334 22.3595C21.881 22.3264 21.9348 22.3031 21.9915 22.2909C22.0482 22.2788 22.1068 22.2779 22.1638 22.2885C22.2208 22.299 22.2752 22.3208 22.3238 22.3525C22.3724 22.3842 22.4142 22.4252 22.4468 22.4731C22.4795 22.5211 22.5023 22.575 22.514 22.6318C22.5257 22.6886 22.5261 22.7472 22.515 22.8041C22.504 22.8611 22.4817 22.9153 22.4496 22.9636H22.448C21.6856 24.1197 21.0012 25.1561 19.0861 24.8057C17.5895 24.5333 17.3935 25.5382 15.9135 25.5515C15.1362 25.5057 14.3808 25.2763 13.7093 24.8821C13.4821 24.732 13.2222 24.6385 12.9514 24.6096C12.6805 24.5807 12.4068 24.6172 12.153 24.716C10.4006 25.206 9.06344 24.2625 8.08842 22.9088Z" fill="white"/>
</svg>
